<?xml version="1.0" standalone="no"?>
<!DOCTYPE svg PUBLIC "-//W3C//DTD SVG 20010904//EN"
 "http://www.w3.org/TR/2001/REC-SVG-20010904/DTD/svg10.dtd">
<svg version="1.0" xmlns="http://www.w3.org/2000/svg"
 width="410.000000pt" height="410.000000pt" viewBox="0 0 410.000000 410.000000"
 preserveAspectRatio="xMidYMid meet">
<metadata>
Created by potrace 1.14, written by Peter Selinger 2001-2017
</metadata>
<g transform="translate(0.000000,410.000000) scale(0.100000,-0.100000)"
fill="#000000" stroke="none">
<path d="M1759 2686 c-2 -2 -55 -7 -117 -11 -62 -3 -122 -8 -135 -10 -12 -2
-51 -6 -87 -10 -95 -9 -152 -15 -180 -21 -14 -2 -45 -7 -70 -10 -63 -8 -311
-60 -400 -85 -41 -12 -79 -22 -85 -23 -5 -2 -17 -5 -25 -8 -333 -116 -488
-211 -568 -347 -38 -65 -38 -156 0 -222 63 -107 183 -195 378 -276 70 -29 94
-38 112 -42 4 -1 28 -10 53 -21 25 -11 45 -17 45 -15 0 3 16 -1 35 -9 19 -8
35 -13 35 -11 0 1 19 -3 43 -10 23 -7 50 -11 60 -9 9 1 17 -1 17 -6 0 -4 39
-15 88 -25 106 -21 106 -21 162 -30 25 -4 52 -9 60 -10 8 -2 38 -6 65 -9 28
-4 57 -9 65 -11 8 -2 51 -7 95 -10 44 -4 82 -8 85 -10 16 -9 315 -20 570 -20
268 0 436 6 545 20 22 2 81 9 130 15 119 13 154 18 255 35 135 24 144 25 162
31 10 3 30 7 45 10 61 10 254 65 347 99 243 87 428 211 483 324 24 49 23 145
-1 199 -10 23 -23 42 -28 42 -4 0 -8 5 -8 11 0 22 -153 149 -178 149 -6 0 -12
4 -14 8 -11 25 -365 166 -469 186 -13 2 -71 16 -129 29 -58 14 -125 28 -150
32 -25 3 -65 10 -90 15 -49 10 -82 15 -175 25 -33 4 -71 8 -85 11 -14 2 -54 6
-90 9 -36 3 -90 8 -120 11 -61 6 -726 15 -731 10z m-1459 -530 c0 -2 -7 -9
-15 -16 -13 -11 -14 -10 -9 4 5 14 24 23 24 12z m-83 -198 c-3 -8 -6 -5 -6 6
-1 11 2 17 5 13 3 -3 4 -12 1 -19z m150 0 c-3 -8 -6 -5 -6 6 -1 11 2 17 5 13
3 -3 4 -12 1 -19z m-160 -60 c-3 -7 -5 -2 -5 12 0 14 2 19 5 13 2 -7 2 -19 0
-25z m165 0 c-8 -8 -9 -4 -5 13 4 13 8 18 11 10 2 -7 -1 -18 -6 -23z m3325 0
c-3 -7 -5 -2 -5 12 0 14 2 19 5 13 2 -7 2 -19 0 -25z m173 12 c0 -11 -4 -20
-9 -20 -5 0 -7 9 -4 20 3 11 7 20 9 20 2 0 4 -9 4 -20z"/>
</g>
</svg>
