<?xml version="1.0" encoding="utf-8"?>

<!-- <a href="https://pixlok.com/images/location-red-icon-svg-location-red-icon-png-image-free-download/">House photo created by Search png - www.pixlok.com</a> -->
<!-- Generator: Adobe Illustrator 25.0.1, SVG Export Plug-In . SVG Version: 6.00 Build 0)  -->
<svg version="1.1" id="OBJECTS" xmlns="http://www.w3.org/2000/svg" xmlns:xlink="http://www.w3.org/1999/xlink" x="0px" y="0px"
	 viewBox="0 0 210.05 323.47" style="enable-background:new 0 0 210.05 323.47;" xml:space="preserve">
<style type="text/css">
	.st0{fill:#ED0F0F;}
	.st1{opacity:0.39;fill:#CB2227;}
	.st2{fill:#F76666;}
</style>
<g>
	<path class="st0" d="M105.03,0C47.02,0,0,47.02,0,105.03s57.29,142.06,105.03,218.44c50.05-80.43,105.03-160.44,105.03-218.44
		S163.03,0,105.03,0z M105.03,155.24c-27.72,0-50.2-22.47-50.2-50.2s22.47-50.2,50.2-50.2s50.2,22.47,50.2,50.2
		S132.75,155.24,105.03,155.24z"/>
	<path class="st1" d="M69.24,266.44c16.19,25.96,22.92,36.44,35.78,57.02c50.05-80.43,105.03-160.44,105.03-218.44
		C210.05,105.03,181.66,182.18,69.24,266.44z"/>
	<path class="st2" d="M23.88,111.07c0-47.47,38.48-85.94,85.94-85.94c24.73,0,47,10.46,62.68,27.17
		c-16.1-21.96-42.07-36.22-71.38-36.22c-48.86,0-88.47,39.61-88.47,88.47c0,38.3,24.34,70.91,58.4,83.22
		C43.07,173.59,23.88,144.58,23.88,111.07z"/>
</g>
</svg>
